<svg xmlns="http://www.w3.org/2000/svg" width="1024" height="1024" viewBox="0 0 1024 1024"><path fill="none" stroke="#dcdcdc" stroke-width="19.8835" stroke-miterlimit="10" d="M1009.087 512c0 274.534-222.554 497.087-497.087 497.087S14.913 786.533 14.913 512C14.913 237.466 237.467 14.913 512 14.913S1009.087 237.467 1009.087 512z"/><path fill="#ff8000" d="M512 820.194c-27.459 0-49.709-22.25-49.709-49.709V273.398c0-27.459 22.25-49.709 49.709-49.709 27.459 0 49.709 22.25 49.709 49.709v497.087c0 27.459-22.25 49.709-49.709 49.709z"/><path fill="#ff8000" d="M810.252 521.942c0 27.459-22.25 49.709-49.709 49.709H263.456c-27.459 0-49.709-22.25-49.709-49.709 0-27.459 22.25-49.709 49.709-49.709h497.087c27.459 0 49.709 22.25 49.709 49.709z"/></svg>