<svg xmlns="http://www.w3.org/2000/svg" width="1024" height="1024" viewBox="0 0 1024 1024"><path fill="#fff" stroke="#fff" stroke-width="17.067" d="M454.144 868.403c0 28.826-23.364 52.173-52.156 52.173s-52.156-23.33-52.156-52.173c0-28.79 23.364-52.173 52.156-52.173s52.156 23.38 52.156 52.173M801.877 920.56c-28.81 0-52.173-23.33-52.173-52.174 0-28.79 23.347-52.173 52.173-52.173 28.81 0 52.156 23.38 52.156 52.173 0 28.843-23.347 52.173-52.156 52.173zM164.3 138.206l-17.066-14.148L265.506 749.96c1.536 8.227 8.72 14.15 17.067 14.15h614.23c9.608 0 17.39-7.783 17.39-17.392s-7.782-17.39-17.39-17.39h-614.23l17.1 14.164L181.386 117.59c-1.536-8.21-8.72-14.15-17.084-14.15H34.46c-9.59 0-17.39 7.8-17.39 17.392 0 9.626 7.798 17.39 17.39 17.39H164.3zm722.45 521.59c7.936 0 14.865-5.358 16.845-13.055l102.775-399.905c2.816-10.99-5.513-21.71-16.845-21.71H305.75c-9.61 0-17.392 7.8-17.392 17.392 0 9.61 7.782 17.39 17.39 17.39h683.777L972.697 238.2 869.904 638.087l16.845-13.056h-498.4c-9.608 0-17.39 7.765-17.39 17.39 0 9.61 7.782 17.392 17.39 17.392h498.4z"/></svg>