<?xml version="1.0" encoding="utf-8"?>
<!-- Generator: Adobe Illustrator 16.0.4, SVG Export Plug-In . SVG Version: 6.00 Build 0)  -->
<!DOCTYPE svg PUBLIC "-//W3C//DTD SVG 1.1//EN" "http://www.w3.org/Graphics/SVG/1.1/DTD/svg11.dtd">
<svg version="1.1" id="图层_1" xmlns="http://www.w3.org/2000/svg" xmlns:xlink="http://www.w3.org/1999/xlink" x="0px" y="0px"
	 width="120px" height="32px" viewBox="0 0 120 32" enable-background="new 0 0 120 32" xml:space="preserve">
<g>
	<path fill="#F6AA00" d="M35.9,2.863c0,0-4.993-0.3-6.291,3.895c-0.6,1.898-1.399,11.088,3.096,12.586
		c6.792,2.297,11.486,0.998,11.786-7.891C44.591,8.756,44.791,2.863,35.9,2.863"/>
	<path fill="#65A031" d="M11.03,1.764c0,0-8.59,0.799-9.689,8.29c-0.5,3.297-0.998,15.882,6.792,19.079
		c11.486,4.793,21.475-2.995,19.777-14.983C27.112,9.455,26.112-0.633,11.03,1.764"/>
	<path fill="#FFFFFF" d="M19.021,20.542h0.799v0.998c0,0.9,0.199,1.199,0.998,1.199h1.199v-0.898h-1c-0.099,0-0.2,0-0.2-0.301
		v-0.998h1.199v-0.898h-4.995v0.898h1c0,0.799,0,0.898-1,1.398v0.998C18.821,22.24,18.92,21.841,19.021,20.542"/>
	<path fill="#FFFFFF" d="M17.623,18.943h3.896l0,0l0,0c0,0,0.299-0.098,0.399-0.197v-0.9c0,0-0.2,0.1-0.399,0.199l0,0l0,0h-3.896
		c-0.3-0.1-0.4-0.199-0.4-0.199v0.9C17.223,18.943,17.623,18.943,17.623,18.943"/>
	<path fill="#FFFFFF" d="M10.23,9.755V8.256h2.397l0,0l0,0c0,0,0.2,0,0.5,0c0,0,0.399-0.101,0.399-0.599l0,0V6.858
		c-0.199,0.2-0.299,0.2-0.899,0.2H6.635c-0.199,0-0.299,0-0.399,0.1c0,0,0,0-0.1,0l0,0c-0.2,0.101-0.2,0.5-0.2,0.5v0.899
		c0.3-0.3,0.798-0.3,0.798-0.3h2.298v1.499H7.733l0,0H6.436c-0.2,0-0.299,0-0.399,0.099c0,0,0,0-0.1,0l0,0
		c-0.3,0.101-0.3,0.5-0.3,0.5v0.899c0.3-0.3,0.7-0.3,0.799-0.3l0,0l0,0h1.598h0.999c-0.3,1.099-1.199,2.297-2.997,2.896l0,0
		c-0.2,0.1-0.4,0.3-0.4,0.499c0,0.301,0.2,0.6,0.6,0.6c0.1,0,0.1,0,0.2,0l0,0l0,0c1.798-0.699,2.896-1.698,3.396-2.797
		c0.699,1.499,2.097,2.499,3.895,2.997V13.95c-1.598-0.499-2.797-1.598-3.296-2.997h0.799l0,0h1.697l0,0l0,0l0,0c0,0,0.2,0,0.5,0
		l0,0c0,0,0.4-0.1,0.4-0.599l0,0V9.555c-0.2,0.2-0.3,0.2-0.9,0.2H10.23L10.23,9.755z"/>
	<path fill="#FFFFFF" d="M20.019,9.755V8.256h2.397l0,0l0,0c0,0,0.2,0,0.5,0c0,0,0.399-0.101,0.399-0.599l0,0V6.858
		c-0.2,0.2-0.299,0.2-0.899,0.2h-5.993c-0.2,0-0.299,0-0.399,0.1c0,0,0,0-0.1,0l0,0c-0.3,0.101-0.3,0.5-0.3,0.5v0.899
		c0.3-0.3,0.799-0.3,0.799-0.3h2.297v1.499h-1.298l0,0h-1.298c-0.2,0-0.301,0-0.4,0.099c0,0,0,0-0.101,0l0,0
		c-0.299,0.101-0.299,0.5-0.299,0.5v0.899c0.299-0.3,0.699-0.3,0.799-0.3l0,0l0,0h1.597h1c-0.299,1.099-1.199,2.297-2.996,2.896l0,0
		c-0.2,0.1-0.399,0.3-0.399,0.499c0,0.301,0.2,0.6,0.599,0.6c0.1,0,0.1,0,0.2,0l0,0l0,0c1.797-0.699,2.896-1.698,3.396-2.797
		c0.698,1.499,2.098,2.499,3.896,2.997V13.95c-1.598-0.499-2.797-1.598-3.296-2.997h0.898l0,0h1.698l0,0l0,0l0,0c0,0,0.2,0,0.5,0
		l0,0c0,0,0.4-0.1,0.4-0.599l0,0V9.555c-0.2,0.2-0.301,0.2-0.9,0.2H20.019L20.019,9.755z"/>
	<path fill="#FFFFFF" d="M12.627,20.744L12.627,20.744h-2.596v-0.603h2.696l0,0c0,0,0.601,0,0.601-0.7v-3.395
		c-0.2,0.2-1.199,0.2-1.199,0.2H6.635c-1.198,0-1.098,0.798-1.098,0.798v2.599l0,0v0.799c0.2-0.2,0.599-0.2,0.699-0.2c0,0,0,0,0.1,0
		h2.597v0.6H6.236l0,0h-0.2c-0.2,0-0.299,0-0.4,0.101c0,0,0,0-0.099,0l0,0c-0.301,0.1-0.301,0.498-0.301,0.498v0.5
		c0.301-0.3,0.8-0.3,0.8-0.3l0,0l0,0h0.2l0,0h1.998c-0.6,0.5-1.399,1-2.697,1.398l0,0l0,0c-0.201,0.1-0.4,0.3-0.4,0.498
		c0,0.302,0.199,0.502,0.499,0.502c0.101,0,0.101,0,0.2,0c1.098-0.3,2.297-0.8,3.096-1.599v1.997h1.099v-2.097
		c0.898,0.898,2.397,1.498,3.596,1.799v-1.001c-1-0.3-2.397-0.998-2.997-1.498h1.898l0,0h0.099l0,0l0,0l0,0c0,0,0.2,0,0.5,0l0,0
		c0,0,0.399-0.101,0.399-0.599l0,0v-0.5C13.427,20.744,13.328,20.744,12.627,20.744L12.627,20.744L12.627,20.744z M10.031,17.245
		h2.198v0.5h-2.198V17.245z M10.031,18.646h2.198v0.5h-2.198V18.646z M8.833,19.146H6.635v-0.5h2.198V19.146z M8.833,17.745H6.635
		v-0.5h2.198V17.745z"/>
	<path fill="#FFFFFF" d="M22.416,16.247h-6.193c-0.698,0-0.799,0.6-0.799,0.798v6.794l0,0l0,0v0.799c0.3-0.2,0.6-0.2,0.799-0.2h0.4
		h5.792h0.401c0,0,0.199,0,0.298,0c0.1,0,0.3-0.101,0.4-0.298c0.1-0.101,0.1-0.202,0.1-0.4v-7.593
		C23.616,16.346,22.416,16.247,22.416,16.247 M22.616,23.439h-6.193v-6.194h6.193V23.439z"/>
	<path fill="#FFFFFF" d="M33.703,12.251c-0.2-0.199-0.599-0.299-0.998-0.299h-0.899c-0.4,0-0.4,0.199-0.4,0.299v3.297h1.299
		c0.399,0,0.699-0.1,0.998-0.3c0.399-0.399,0.399-0.899,0.399-1.499C34.102,13.25,34.203,12.751,33.703,12.251 M33.304,14.749
		c-0.2,0.1-0.299,0.2-0.599,0.2h-0.5v-2.397h0.5c0.2,0,0.399,0.101,0.499,0.2c0.1,0.199,0.2,0.398,0.2,0.898
		C33.404,14.25,33.404,14.549,33.304,14.749"/>
	<path fill="#FFFFFF" d="M35.601,12.852c-0.399,0-0.7,0.099-0.999,0.398l0.199,0.201l0,0c0,0,0.2,0.1,0.4,0.1h0.1l0,0l0,0
		c0.1,0,0.1,0,0.2,0C35.8,13.55,36,13.65,36,13.95l0,0h-0.599c-0.6,0-0.899,0.3-0.899,0.799c0,0.2,0.1,0.5,0.2,0.6
		c0.199,0.2,0.399,0.2,0.699,0.2s0.499-0.1,0.699-0.3l0,0l0,0c0,0,0,0.2,0.2,0.2h0.398V13.75
		C36.699,13.25,36.301,12.852,35.601,12.852 M36.101,14.65c0,0.199,0,0.298-0.101,0.298c-0.1,0.1-0.2,0.1-0.399,0.1
		c-0.3,0-0.399-0.1-0.399-0.299c0-0.199,0.1-0.299,0.399-0.299h0.5V14.65L36.101,14.65z"/>
	<path fill="#FFFFFF" d="M39.197,12.95c-0.3,0-0.4,0.3-0.4,0.3l-0.399,1.4l-0.499-1.4l0,0c-0.1-0.3-0.4-0.3-0.4-0.3h-0.399
		l0.898,2.498l-0.099,0.3c0,0.2-0.1,0.2-0.3,0.2h-0.1c-0.399,0-0.399,0.499-0.399,0.499v0.1h0.6c0.2,0,0.399-0.1,0.599-0.201
		c0.1-0.1,0.1-0.2,0.2-0.3l1.099-3.096H39.197L39.197,12.95z"/>
	<path fill="#FFFFFF" d="M38.397,8.057h-0.4v1.598c0,0.399-0.199,0.5-0.499,0.5c-0.199,0-0.499-0.101-0.499-0.5V8.356
		c0-0.3-0.3-0.3-0.3-0.3h-0.398v1.698c0,0.299,0.1,0.599,0.298,0.799c0.2,0.2,0.4,0.2,0.601,0.2c0.199,0,0.499-0.101,0.699-0.3l0,0
		c0,0.1,0,0.2,0.299,0.2h0.4V8.256C38.597,8.057,38.397,8.057,38.397,8.057"/>
	<path fill="#FFFFFF" d="M39.796,6.957c-0.2,0-0.3,0.201-0.3,0.301c0,0.099,0.2,0.298,0.3,0.298c0.2,0,0.299-0.199,0.299-0.298
		C40.095,7.058,39.996,6.957,39.796,6.957"/>
	<path fill="#FFFFFF" d="M39.496,8.457v2.297h0.3l0,0c0,0,0.299,0,0.299-0.4V8.057h-0.299C39.496,8.057,39.496,8.457,39.496,8.457"
		/>
	<path fill="#FFFFFF" d="M42.093,10.154c-0.2,0-0.2-0.101-0.2-0.2V8.756h0.2l0,0l0,0l0,0c0,0,0.1,0,0.2,0c0,0,0.2-0.1,0.2-0.299l0,0
		v-0.4c0,0-0.1,0-0.1,0.099l0.1-0.099h-0.7V7.357h-0.299c-0.3,0-0.4,0.3-0.4,0.3v0.499h-0.099l0,0l0,0l0,0c0,0-0.101,0-0.199,0
		c0,0-0.2,0-0.2,0.301l0,0v0.399h0.498v1.099c0,0.399,0.201,0.799,0.799,0.799h0.4l0,0h0.1c0,0,0.2,0,0.2-0.3l0,0v-0.4
		c-0.1,0.101-0.2,0.101-0.4,0.101H42.093L42.093,10.154z"/>
	<path fill="#FFFFFF" d="M35.401,8.256c-0.3,0-0.6,0.1-0.699,0.3v-0.2c0-0.3-0.3-0.3-0.3-0.3h-0.399v2.697h0.299l0,0
		c0,0,0.4,0,0.4-0.4V9.555c0-0.299,0.199-0.499,0.399-0.499c0.999,0,0.699-0.999,0.699-0.999C36,8.256,35.401,8.256,35.401,8.256"/>
	<path fill="#FFFFFF" d="M33.304,7.058L33.304,7.058h-0.299h-1.099c-0.399,0-0.399,0.299-0.399,0.4v3.296h0.299l0,0
		c0,0,0.4,0,0.4-0.5V9.256h0.799l0,0h0.199l0,0l0,0l0,0c0,0,0.1,0,0.299,0c0,0,0.2,0,0.2-0.3l0,0V8.557h-0.499l0,0h-0.199l0,0h-0.2
		h-0.599V7.657h0.599l0,0h0.5l0,0l0,0l0,0c0,0,0.1,0,0.3,0c0,0,0.2,0,0.2-0.3l0,0V7.058H33.304L33.304,7.058"/>
	<g>
		<g>
			<path fill="#8FB13D" d="M116.207,17.545c0.197,0,0.299-0.1,0.299-0.3s-0.102-0.298-0.299-0.298c-0.201,0-0.303,0.098-0.303,0.298
				S116.006,17.545,116.207,17.545"/>
			<path fill="#8FB13D" d="M108.014,21.94c-0.197-0.2-0.498-0.3-0.896-0.3h-0.801c-0.299,0-0.398,0.2-0.398,0.3v2.897h1.199
				c0.301,0,0.6-0.103,0.896-0.301c0.4-0.397,0.301-0.798,0.301-1.298C108.314,22.839,108.414,22.341,108.014,21.94 M107.615,24.14
				c-0.1,0.1-0.299,0.197-0.498,0.197h-0.5V22.24h0.5c0.199,0,0.398,0.101,0.498,0.2c0.102,0.101,0.102,0.299,0.102,0.799
				S107.717,24.039,107.615,24.14"/>
			<path fill="#8FB13D" d="M104.221,17.846c0,0.199-0.502,0.199-0.502,0.199c-0.299,0-0.498,0.101-0.596,0.301v-0.2
				c0-0.2-0.203-0.3-0.303-0.3h-0.297v2.296h0.6v-1.098c0-0.298,0.197-0.398,0.398-0.398
				C104.52,18.746,104.221,17.846,104.221,17.846"/>
			<path fill="#8FB13D" d="M101.822,22.541h-0.301v1.396c0,0.302-0.197,0.399-0.396,0.399c-0.201,0-0.398-0.098-0.398-0.399v-1.099
				c0-0.298-0.203-0.298-0.301-0.298h-0.303v1.498c0,0.298,0.102,0.498,0.203,0.696c0.1,0.103,0.297,0.202,0.598,0.202
				c0.201,0,0.4-0.1,0.598-0.202l0,0c0,0.103,0,0.202,0.203,0.202h0.299v-2.198C102.123,22.541,101.922,22.541,101.822,22.541"/>
			<path fill="#8FB13D" d="M103.021,21.54c-0.201,0-0.299,0.101-0.299,0.301s0.098,0.3,0.299,0.3c0.199,0,0.299-0.1,0.299-0.3
				C103.32,21.74,103.123,21.54,103.021,21.54"/>
			<path fill="#8FB13D" d="M109.615,22.541c-0.402,0-0.602,0.1-0.9,0.298l0.201,0.2l0,0c0,0,0.199,0.1,0.297,0.1c0,0,0,0,0.104,0
				l0,0l0,0c0.096,0,0.096,0,0.197,0c0.301,0,0.398,0.101,0.398,0.398v0.1h-0.596c-0.502,0-0.803,0.301-0.803,0.7
				c0,0.2,0.102,0.398,0.201,0.501c0.1,0.1,0.299,0.199,0.602,0.199c0.299,0,0.396-0.1,0.596-0.199l0,0l0,0c0,0,0,0.199,0.199,0.199
				h0.301v-1.5C110.613,22.839,110.312,22.541,109.615,22.541 M110.111,24.039c0,0.101,0,0.2-0.096,0.298
				c-0.104,0.101-0.201,0.101-0.4,0.101c-0.203,0-0.299-0.101-0.299-0.298c0-0.202,0.096-0.301,0.299-0.301h0.496V24.039
				L110.111,24.039z"/>
			<path fill="#8FB13D" d="M112.811,22.541c-0.301,0-0.301,0.298-0.301,0.298l-0.4,1.2l-0.398-1.2l0,0
				c-0.1-0.298-0.4-0.298-0.4-0.298h-0.297l0.795,2.194l-0.098,0.302c-0.1,0.2-0.1,0.2-0.299,0.2h-0.102
				c-0.398,0-0.398,0.398-0.398,0.398v0.1h0.5c0.199,0,0.396,0,0.5-0.2c0.1-0.098,0.1-0.197,0.197-0.298l1-2.696H112.811
				L112.811,22.541z"/>
			<path fill="#8FB13D" d="M106.316,17.945c-0.299,0-0.299,0.3-0.299,0.3l-0.4,1.196l-0.398-1.196l0,0c-0.1-0.3-0.4-0.3-0.4-0.3
				h-0.299l0.799,2.196l-0.1,0.301c-0.1,0.2-0.1,0.2-0.299,0.2h-0.102c-0.396,0-0.396,0.399-0.396,0.399v0.101h0.498
				c0.199,0,0.398,0,0.498-0.2c0.102-0.101,0.102-0.198,0.199-0.3l1-2.697H106.316L106.316,17.945z"/>
			<path fill="#8FB13D" d="M102.723,22.839v1.999h0.299l0,0c0,0,0.299,0,0.299-0.301v-1.996h-0.299
				C102.723,22.541,102.723,22.839,102.723,22.839"/>
			<path fill="#8FB13D" d="M116.506,19.942v-1.997h-0.299c-0.303,0-0.303,0.3-0.303,0.3v1.997h0.303l0,0
				C116.207,20.242,116.506,20.242,116.506,19.942"/>
			<path fill="#8FB13D" d="M105.02,24.438c-0.1,0-0.201-0.101-0.201-0.198v-1h0.201l0,0l0,0l0,0c0,0,0.1,0,0.199,0
				c0,0,0.199-0.101,0.199-0.301l0,0v-0.298c0,0,0,0-0.1,0h0.1h-0.6v-0.7h-0.299c-0.299,0-0.299,0.3-0.299,0.3v0.4h-0.1l0,0l0,0l0,0
				c0,0-0.1,0-0.201,0c0,0-0.201,0-0.201,0.198l0,0v0.3h0.402v1.001c0,0.298,0.197,0.698,0.697,0.698h0.301l0,0h0.1
				c0,0,0.199,0,0.199-0.2l0,0v-0.301c-0.1,0.101-0.1,0.101-0.299,0.101H105.02L105.02,24.438z"/>
			<path fill="#8FB13D" d="M117.902,19.742c-0.098,0-0.197,0-0.297,0h-0.102l0,0c0,0,0,0-0.1,0c-0.1-0.099-0.199,0-0.199,0
				l-0.301,0.302c0.1,0.098,0.301,0.198,0.5,0.298c0.1,0,0.301,0.101,0.498,0.101c0.301,0,0.502-0.101,0.699-0.2
				c0.201-0.101,0.303-0.3,0.303-0.599c0-0.399-0.203-0.6-0.701-0.7h-0.398c-0.199,0-0.199-0.098-0.199-0.197
				c0-0.101,0.1-0.202,0.297-0.202c0.102,0,0.203,0,0.301,0l0,0l0,0c0,0,0,0,0.098,0c0.104,0,0.301,0,0.4-0.099l0.102-0.1
				c-0.201-0.2-0.502-0.301-0.9-0.301c-0.197,0-0.498,0.101-0.598,0.2c-0.199,0.101-0.301,0.299-0.301,0.501
				c0,0.399,0.201,0.598,0.701,0.598h0.4c0.195,0,0.195,0.098,0.195,0.2C118.301,19.644,118.203,19.742,117.902,19.742"/>
			<path fill="#8FB13D" d="M99.525,22.739c-0.301,0-0.498,0.1-0.6,0.3v-0.2c0-0.198-0.199-0.298-0.299-0.298h-0.299v2.297h0.299l0,0
				c0,0,0.299,0,0.299-0.4v-0.698c0-0.3,0.201-0.4,0.402-0.4c0.896,0,0.697-0.798,0.697-0.798
				C99.924,22.739,99.525,22.739,99.525,22.739"/>
			<path fill="#8FB13D" d="M102.223,18.943c0-0.298-0.1-0.498-0.301-0.698c-0.197-0.2-0.4-0.3-0.697-0.3
				c-0.301,0-0.498,0.1-0.701,0.3c-0.197,0.2-0.299,0.501-0.299,0.9c0,0.797,0.299,1.196,1,1.196c0.199,0,0.4,0,0.5-0.1
				c0.098-0.101,0.197-0.101,0.398-0.3l-0.201-0.2c-0.1-0.099-0.297-0.099-0.4,0h-0.098l0,0l0,0c-0.1,0-0.1,0-0.199,0
				c-0.201,0-0.301-0.099-0.4-0.099c-0.098,0-0.098-0.202-0.098-0.399h1.096c0,0,0.301,0,0.301-0.2L102.223,18.943L102.223,18.943
				 M100.824,18.846c0-0.1,0-0.2,0.1-0.2c0.1-0.2,0.201-0.2,0.4-0.2c0.197,0,0.301,0.099,0.4,0.2c0,0.101,0.098,0.2,0.098,0.2
				H100.824z"/>
			<path fill="#8FB13D" d="M99.525,18.146L99.525,18.146l-0.398,1.198l-0.4-1.198c-0.1-0.2-0.299-0.2-0.299-0.2h-0.4l0.801,2.297
				h0.199c0,0,0.197,0,0.301-0.198l0.697-1.999h-0.299C99.625,17.945,99.525,18.146,99.525,18.146"/>
			<path fill="#8FB13D" d="M97.928,19.942L97.928,19.942v-0.299h-1.396v-0.798h0.996c0,0,0.199,0,0.199-0.2v-0.3h-1.195v-0.698
				h1.195c0,0,0.201,0,0.201-0.202v-0.3h-1.799c-0.201,0-0.201,0.2-0.201,0.2v2.896h1.799
				C97.826,20.142,97.928,20.142,97.928,19.942"/>
			<path fill="#8FB13D" d="M97.629,21.641L97.629,21.641h-0.301h-0.9c-0.299,0-0.396,0.2-0.396,0.3v2.897h0.197l0,0
				c0,0,0.402,0,0.402-0.4v-0.9h0.697h0.1l0,0l0,0l0,0c0,0,0.1,0,0.201,0l0,0c0,0,0.197,0,0.197-0.298l0,0v-0.301h-0.398l0,0h-0.1
				l0,0h-0.199h-0.498v-0.798h0.498l0,0h0.398l0,0l0,0l0,0c0,0,0.102,0,0.199,0c0,0,0.201,0,0.201-0.3l0,0V21.54L97.629,21.641
				L97.629,21.641"/>
			<path fill="#8FB13D" d="M109.115,17.245c-0.199-0.2-0.5-0.298-0.9-0.298h-0.797c-0.301,0-0.4,0.198-0.4,0.298v2.896h1.197
				c0.299,0,0.6-0.098,0.9-0.3c0.398-0.4,0.297-0.798,0.297-1.298C109.412,18.045,109.412,17.647,109.115,17.245 M108.615,19.344
				c-0.102,0.098-0.301,0.2-0.5,0.2h-0.5v-2.099h0.5c0.199,0,0.398,0.1,0.5,0.202c0.1,0.098,0.1,0.298,0.1,0.798
				C108.814,19.044,108.715,19.244,108.615,19.344"/>
			<path fill="#8FB13D" d="M110.713,17.745c-0.4,0-0.602,0.101-0.898,0.3l0.201,0.2l0,0c0,0,0.197,0.101,0.297,0.101c0,0,0,0,0.1,0
				l0,0l0,0c0.1,0,0.1,0,0.201,0c0.299,0,0.4,0.1,0.4,0.4v0.1h-0.602c-0.5,0-0.797,0.3-0.797,0.698c0,0.198,0.1,0.398,0.199,0.5
				c0.098,0.098,0.297,0.198,0.598,0.198s0.4-0.101,0.602-0.198l0,0l0,0c0,0,0,0.198,0.199,0.198h0.299v-1.496
				C111.711,18.045,111.412,17.745,110.713,17.745 M111.111,19.244c0,0.1,0,0.197-0.098,0.3c-0.102,0.1-0.201,0.1-0.4,0.1
				c-0.201,0-0.301-0.1-0.301-0.3c0-0.198,0.1-0.3,0.301-0.3h0.498V19.244L111.111,19.244z"/>
			<path fill="#8FB13D" d="M113.908,17.846c-0.301,0-0.301,0.3-0.301,0.3l-0.4,1.198l-0.396-1.198l0,0c-0.1-0.3-0.398-0.3-0.398-0.3
				h-0.303l0.801,2.097l-0.1,0.3c-0.1,0.2-0.1,0.2-0.301,0.2h-0.098c-0.4,0-0.4,0.399-0.4,0.399v0.101h0.498
				c0.201,0,0.4,0,0.5-0.198c0.1-0.102,0.1-0.202,0.197-0.302l1-2.697L113.908,17.846L113.908,17.846z"/>
		</g>
		<g>
			<g>
				<path fill="#8FB13D" d="M52.081,20.643c-0.299-0.501-0.5-1.099-0.699-1.797h0.299c0.201,0,0.399-0.2,0.399-0.4v-0.5h-0.699
					v-1.099h-0.699c-0.2,0-0.399,0.198-0.399,0.398v0.7h-0.299c-0.2,0-0.4,0.2-0.4,0.4v0.598h0.798
					c-0.199,1.101-0.5,1.699-0.898,2.497c-0.1,0.2-0.1,0.3-0.1,0.5l0.2,1.398c0.4-0.6,0.5-1.099,0.798-1.698v3.297h0.5
					c0.399,0,0.698-0.3,0.698-0.698v-3.297c0.1,0.2,0.301,0.698,0.399,0.998c0,0.101,0.1,0.101,0.1,0l0.299-0.798
					C52.282,21.042,52.182,20.842,52.081,20.643z"/>
				<path fill="#8FB13D" d="M57.475,20.342v-0.798h-1.397c0.399-0.398,0.598-1.198,0.899-1.799v-0.798H52.78
					c-0.199,0-0.3,0.098-0.3,0.298v0.5h0.5v0.601c0,1.396-0.1,2.696-0.2,3.395c-0.099,0.4-0.3,0.9-0.4,1.198
					c-0.198,0.4-0.198,0.698-0.198,1.201l0.1,0.798c0.998-1,1.498-2.198,1.697-3.397c0.201,0.7,0.5,1.299,0.9,1.699
					c-0.399,0.397-0.799,0.6-1.398,0.9v0.596c0,0.103,0.099,0.202,0.299,0.202c0.699-0.3,1.297-0.601,1.797-1
					c0.5,0.302,1.098,0.6,1.998,0.9c0.101,0,0.299-0.103,0.299-0.2v-0.599c-0.699-0.2-1.2-0.502-1.498-0.8
					C56.776,22.739,57.175,21.74,57.475,20.342z M54.479,20.842h-0.5c0.101-0.6,0.101-1.498,0.101-2.298v-0.799h1.498
					c-0.101,0.5-0.299,1.198-0.598,1.799v0.798h1.199c-0.101,0.898-0.401,1.599-0.702,2.099c-0.198-0.399-0.399-0.8-0.497-1.298
					C54.878,21.042,54.677,20.842,54.479,20.842z"/>
				<path fill="#8FB13D" d="M58.773,19.344c-0.1,0.098-0.201,0.3-0.201,0.498v0.601c1.199,0,2.197-0.101,3-0.101v0.2
					c0,0.101,0.098,0.202,0.197,0.202h0.9c-0.201-0.7-0.4-1.4-0.6-1.898c-0.1-0.2-0.199-0.302-0.4-0.302h-0.699
					c0.1,0.399,0.201,0.7,0.299,1c-0.299,0-0.798,0-1.596,0c0.399-0.398,0.798-1.099,1.096-1.698h1.4
					c0.201,0,0.299-0.101,0.299-0.301v-0.598h-3.795c-0.199,0-0.299,0.098-0.299,0.298v0.601h1.099
					C59.373,18.245,59.073,18.943,58.773,19.344z"/>
				<path fill="#8FB13D" d="M64.666,16.847h-0.898c-0.201,0-0.398,0.101-0.398,0.299c-0.1,0.8-0.301,1.398-0.699,1.798
					c-0.1,0.101-0.201,0.301-0.201,0.4v0.599c0.102,0,0.102-0.101,0.201-0.101c0.1-0.1,0.1-0.1,0.199-0.1
					c0.199,1.2,0.5,2.198,1,2.898c-0.4,0.398-0.801,0.799-1.199,1.198v-0.7c-0.1,0-0.201,0.101-0.4,0.101
					c-0.5,0.1-0.898,0.2-1.098,0.2V22.24h0.898c0.199,0,0.398-0.199,0.398-0.399v-0.5H61.07v-0.799h-0.799
					c-0.199,0-0.399,0.202-0.399,0.4v0.298h-0.899c-0.2,0-0.4,0.2-0.4,0.4v0.5h1.399v1.299c-0.299,0-0.698,0-1.099,0
					c-0.2,0-0.399,0.197-0.399,0.399v0.498c1.498,0,2.897-0.098,3.995-0.498v0.498c0,0.2,0.201,0.301,0.301,0.2
					c0.797-0.498,1.297-0.9,1.699-1.298c0.498,0.5,1.098,0.9,1.795,1.298c0.102,0.101,0.301,0,0.301-0.2v-0.399
					c0,0-1.199-0.799-1.5-1.198c0.602-0.999,1.002-2.297,1.002-3.993h0.1c0.199,0,0.398-0.202,0.398-0.4v-0.5h-2.199
					C64.568,17.545,64.568,17.245,64.666,16.847z M65.064,18.746c-0.098,1.196-0.299,2.196-0.496,2.794
					c-0.203-0.598-0.502-1.298-0.602-2.196h-0.301c0.203-0.198,0.4-0.4,0.502-0.698h0.896V18.746z"/>
				<path fill="#8FB13D" d="M80.848,17.745v-0.399h-1.4v-0.499h-0.895c-0.201,0-0.4,0.198-0.4,0.398v0.101h-0.9
					c-0.201,0-0.398,0.199-0.398,0.399v0.4h3.596C80.648,18.146,80.848,17.945,80.848,17.745z"/>
				<path fill="#8FB13D" d="M80.848,21.44v-0.498h-1.4v-0.7h1.201c0.199,0,0.299-0.198,0.299-0.3v-0.501H80.25
					c0.098-0.197,0.098-0.397,0.199-0.695c0-0.202-0.102-0.301-0.299-0.301H79.35c0,0.301-0.098,0.7-0.201,0.996h-0.797
					c-0.1-0.296-0.199-0.596-0.199-0.996h-0.799c-0.203,0-0.303,0.2-0.303,0.301c0,0.298,0.1,0.498,0.201,0.695h-0.299
					c-0.203,0-0.301,0.202-0.301,0.301v0.5h1.699v0.7H77.15c-0.197,0-0.297,0.2-0.297,0.298v0.5h1.498v1.699c0,0.3-0.1,0.6-0.4,0.6
					c-0.199,0-0.301,0.101-0.301,0.298v0.601h0.701c0.797,0,1.197-0.5,1.197-1.301v-1.796h1
					C80.748,21.841,80.848,21.641,80.848,21.44z"/>
				<path fill="#8FB13D" d="M77.15,22.541c-0.1,0.298-0.197,0.598-0.4,0.798c-0.197,0.198-0.197,0.4-0.197,0.7l0.1,0.498
					c0.998-0.397,1.398-1.098,1.5-2.196h-0.602C77.354,22.24,77.15,22.341,77.15,22.541z"/>
				<path fill="#8FB13D" d="M82.445,18.045h0.9c0.398,0,0.697,0,1.098-0.1c0.301-0.1,0.4-0.298,0.4-0.5v-0.498
					c-0.5,0.198-1.1,0.298-1.697,0.198h-1.4c-0.301,0-0.598,0.2-0.598,0.6v4.896c0,0.498,0,0.896-0.102,1.099
					c-0.299-0.3-0.398-0.7-0.498-1.198c0-0.2-0.201-0.301-0.299-0.301h-0.701c0.102,1.099,0.5,1.799,1.199,2.097v0.601
					c1.098-0.5,1.598-1.4,1.496-2.697v-2.196h0.602v4.894h0.5c0.299,0,0.602-0.3,0.602-0.601v-4.293h0.295
					c0.201,0,0.4-0.202,0.4-0.4v-0.498h-2.496L82.445,18.045L82.445,18.045z"/>
				<path fill="#8FB13D" d="M85.641,24.14v0.498c1.398,0,2.598-0.101,3.598-0.301c0.199-0.098,0.301-0.197,0.301-0.399v-0.498
					c-0.9,0.197-2.1,0.3-3.498,0.3C85.842,23.739,85.641,23.938,85.641,24.14z"/>
				<path fill="#8FB13D" d="M92.432,22.24v-1.198h0.902c0.197,0,0.299-0.2,0.299-0.298v-0.603h-1.201v-1.198h1.1
					c0.201,0,0.303-0.197,0.303-0.298v-0.7h-0.602c0.102-0.2,0.102-0.5,0.199-0.8c0-0.198-0.098-0.398-0.299-0.398h-0.797
					c0,0.398-0.1,0.798-0.201,1.099h-0.898c-0.1-0.4-0.199-0.7-0.199-1.099h-0.801c-0.199,0-0.299,0.2-0.299,0.398
					c0,0.3,0.1,0.6,0.199,0.8h-0.301c-0.199,0-0.297,0.2-0.297,0.3v0.601h1.396v1.198h-0.898c-0.201,0-0.303,0.198-0.303,0.298
					v0.601h1.201v1.198h-0.998c-0.203,0-0.301,0.2-0.301,0.3v0.599h1.5v1.898h0.596c0.402,0,0.699-0.3,0.699-0.698v-1.101h1.201
					c0.201,0,0.301-0.2,0.301-0.3V22.24H92.432z"/>
				<path fill="#8FB13D" d="M87.24,18.045h0.799c-0.201,0.4-0.398,0.701-0.6,0.898h-1.098c-0.301,0-0.5,0.202-0.5,0.498v3.697h2.396
					c0.801,0.101,1.1-0.3,1.1-1.098v-3.098h-0.797c0.098-0.098,0.098-0.197,0.199-0.298c0.299-0.3,0.398-0.7,0.398-1.2v-0.2h-1.498
					c0-0.1,0.098-0.1,0.098-0.2c0-0.098,0.1-0.198,0.1-0.198h-0.799c-0.197,0-0.396,0.198-0.498,0.299
					c-0.199,0.399-0.398,0.7-0.699,0.899c-0.098,0.101-0.201,0.2-0.201,0.4v0.498C86.441,18.746,87.039,18.445,87.24,18.045z
					 M87.34,22.341h-0.398v-1h0.398V22.341z M87.34,20.542h-0.398v-0.898h0.398V20.542z M88.141,19.644h0.4v0.898h-0.4V19.644z
					 M88.141,21.24h0.4v1h-0.4V21.24z"/>
				<path fill="#8FB13D" d="M72.557,22.341c0,0,0.398,0.498,0.9,0.2l0.496-0.301c-0.297-0.6-0.697-1-0.998-1.398
					c-0.295-0.3-0.598-0.098-0.697-0.098l-0.6,0.398C71.957,21.44,72.258,21.841,72.557,22.341L72.557,22.341z"/>
				<path fill="#8FB13D" d="M73.756,17.045l-0.598-0.198c-0.498-0.1-0.602,0.101-0.701,0.299c-0.4,1-0.799,1.898-1.199,2.597v-1.597
					h-1.396c0-0.101,0.102-0.101,0.102-0.2c0.096-0.4,0.197-0.7,0.301-0.9l-0.604-0.098c-0.699-0.101-0.797,0.498-0.797,0.498
					c-0.102,0.202-0.102,0.5-0.201,0.8h-0.398c-0.402,0-0.5,0.501-0.5,0.501v6.291h1.197h1.199h0.5c0.102,0,0.699,0,0.699-0.6
					v-4.394c0.199,0.098,0.4,0.198,0.598,0.298l0,0l0,0l0,0c0.1,0.101,0.4,0.2,0.6-0.2c0-0.098,0.104-0.199,0.104-0.3
					c0.098-0.198,0.197-0.4,0.197-0.498h1.496c0,0.798,0,1.599,0,2.396c0,0.601,0,1.099,0,1.499c0,0.397-0.299,0.6-0.797,0.6
					c-0.199,0-0.398,0-0.602,0l0,0c-0.598,0-0.498,0.599-0.498,0.599l0,0c0.1,0.2,0.1,0.4,0.1,0.6c0.699,0,1.199,0,1.6,0
					c0.799-0.1,1.197-0.6,1.299-1.4c0.098-1.896,0.098-3.694,0.098-5.291h-2.195C73.457,17.745,73.656,17.445,73.756,17.045z
					 M70.16,23.839h-1.398V21.74h1.398V23.839z M70.16,20.643h-1.398v-1.497h1.398V20.643z"/>
			</g>
			<g>
				<path fill="#8FB13D" d="M67.764,10.953v0.699h7.691c0.299,0,0.498-0.199,0.498-0.5v-0.699h-7.689
					C68.064,10.354,67.764,10.653,67.764,10.953z"/>
				<path fill="#8FB13D" d="M57.275,11.153V7.258h-6.492c-0.301,0-0.6,0.298-0.6,0.599v3.795h6.491
					C56.976,11.752,57.275,11.453,57.275,11.153z M55.876,10.854h-4.394V8.256h4.394V10.854z"/>
				<path fill="#8FB13D" d="M52.581,12.751l-0.6-0.5c-0.599,0.699-1.298,1.299-2.098,1.799l0,0c-0.398,0.299-0.2,0.5-0.099,0.6
					l0.5,0.598c0.798-0.5,1.599-1.099,2.297-1.897c0.299-0.3,0.199-0.4,0.1-0.499L52.581,12.751z"/>
				<path fill="#8FB13D" d="M54.677,12.652l-0.498,0.498c0.699,0.6,1.598,1.399,2.297,1.998l0,0c0,0,0.4,0.4,0.699,0l0,0
					l0.599-0.599c-0.698-0.6-1.596-1.299-2.396-1.897C54.979,12.251,54.677,12.652,54.677,12.652z"/>
				<path fill="#8FB13D" d="M83.744,7.357c-0.1-0.2-0.299-0.4-0.5-0.4h-0.898c0.199,1.5,0.801,2.798,1.797,3.397H80.15
					c0.998-0.599,1.596-1.897,1.799-3.397h-0.902c-0.199,0-0.498,0.201-0.498,0.4c-0.201,0.899-0.6,1.898-1.199,2.497
					c-0.098,0.101-0.201,0.2-0.201,0.4v0.6c0.104-0.1,0.201-0.1,0.299-0.1c0.203-0.101,0.301-0.2,0.4-0.2v0.699h1
					c0,1.399-0.598,2.397-1.4,2.896c-0.098,0.1-0.195,0.199-0.195,0.3v0.599c1.795-0.699,2.697-1.998,2.697-3.895h1.295
					c0,0.6-0.098,2.397-0.098,2.597c0,0.3-0.201,0.5-0.602,0.5c-0.1,0-0.199,0-0.398,0l0,0c-0.5,0-0.4,0.4-0.4,0.4l0,0
					c0,0.099,0.1,0.298,0.1,0.398c0.5,0,1.1,0,1.398,0c0.602,0,0.898-0.398,0.998-0.998c0-1.398,0.102-2.397,0.102-3.596
					c0,0,0.1,0,0.1,0.1c0.301,0.2,0.5,0.3,0.697,0.399v-0.599c0-0.2-0.096-0.3-0.197-0.399C84.344,9.256,83.947,8.356,83.744,7.357z
					"/>
				<path fill="#8FB13D" d="M78.252,7.357c-0.201,0.899-0.602,1.398-1.102,1.798c-0.197,0.2-0.297,0.499-0.297,0.799l0.1,0.699
					c0.197-0.1,0.697-0.399,0.697-0.399v4.894h0.502c0.4,0,0.699-0.299,0.699-0.699V9.056c0.297-0.599,0.596-1.299,0.799-2.099h-0.9
					C78.451,6.957,78.252,7.058,78.252,7.357z"/>
				<path fill="#8FB13D" d="M66.664,8.256h-3.695c0-0.101,0-0.101,0-0.2v-1.1H62.27c-0.299,0-0.5,0.201-0.5,0.501v0.698v0.101
					h-0.598c-0.102-0.399-0.102-0.5-0.303-0.899c-0.1-0.099-0.197-0.2-0.297-0.2h-0.899c0.099,0.399,0.299,0.699,0.399,1.099h-0.599
					c-0.3,0-0.5,0.2-0.5,0.5v0.6h2.697c-0.098,1.897-0.9,3.196-2.597,4.494c-0.1,0.2-0.1,0.3-0.1,0.499v0.6c0,0.1,0.1,0.2,0.2,0.1
					c2.596-1.298,3.696-3.196,3.795-5.692h2.494c0,0.799,0,1.797,0,2.597c0,0.599,0,0.998,0,1.298c0,0.4-0.297,0.6-0.797,0.6
					c-0.197,0-0.396,0-0.6,0l0,0c-0.598,0-0.5,0.6-0.5,0.6l0,0c0.1,0.201,0.1,0.399,0.1,0.599c0.699,0,1.201,0,1.602,0
					c0.799-0.1,1.197-0.499,1.297-1.398C66.564,11.752,66.664,9.854,66.664,8.256L66.664,8.256L66.664,8.256z"/>
				<path fill="#8FB13D" d="M63.869,12.251c0,0,0.299,0.5,0.797,0.201l0.5-0.301c-0.299-0.499-0.598-0.898-0.896-1.297
					c-0.203-0.3-0.502-0.1-0.604-0.1l-0.498,0.299C63.27,11.453,63.566,11.852,63.869,12.251L63.869,12.251z"/>
			</g>
		</g>
	</g>
</g>
</svg>
